<?xml version="1.0" encoding="UTF-8" standalone="no"?>
<!-- Created with Inkscape (http://www.inkscape.org/) -->
<svg xmlns:svg="http://www.w3.org/2000/svg" xmlns="http://www.w3.org/2000/svg" xmlns:xlink="http://www.w3.org/1999/xlink" version="1.0" width="900" height="600" id="svg2">
  <defs id="defs4"/>
  <rect width="900" height="600" x="0" y="3.7060545e-07" id="rect2390" style="fill:#003da5;fill-opacity:1;fill-rule:nonzero;stroke:none"/>
  <use transform="matrix(-0.962691,0.2706,-0.2706,-0.962691,944.31655,475.18929)" id="use2366" x="0" y="0" width="1000" height="700" xlink:href="#path2280"/>
  <path d="M 760.05359,356.56836 L 748.3833,360.36076 L 748.38283,372.63178 L 741.16973,362.70459 L 729.49915,366.4961 L 736.7115,356.56836 L 729.49915,346.64062 L 741.16973,350.43213 L 748.38283,340.50494 L 748.3833,352.77596 L 760.05359,356.56836 z" transform="matrix(0.86465861,0.11036972,-0.11036972,0.86465861,23.270766,-63.758501)" id="path2280" style="fill:#ffffff;fill-opacity:1;fill-rule:nonzero;stroke:none"/>
  <use transform="matrix(0.983885,-0.178802,0.178802,0.983885,-47.041036,83.443593)" id="use2326" x="0" y="0" width="1000" height="700" xlink:href="#path2280"/>
  <use transform="matrix(0.858065,-0.513541,0.513541,0.858065,-93.078394,268.61282)" id="use2328" x="0" y="0" width="1000" height="700" xlink:href="#path2280"/>
  <use transform="matrix(0.93606,-0.351842,0.351842,0.93606,-78.404093,173.95358)" id="use2330" x="0" y="0" width="1000" height="700" xlink:href="#path2280"/>
  <use transform="matrix(0.622515,-0.782608,0.782608,0.622515,-71.021806,458.13997)" id="use2332" x="0" y="0" width="1000" height="700" xlink:href="#path2280"/>
  <use transform="matrix(0.307357,-0.951594,0.951594,0.307357,16.308018,627.78836)" id="use2334" x="0" y="0" width="1000" height="700" xlink:href="#path2280"/>
  <use transform="matrix(0.472551,-0.881304,0.881304,0.472551,-35.001857,546.89961)" id="use2336" x="0" y="0" width="1000" height="700" xlink:href="#path2280"/>
  <use transform="matrix(0.752415,-0.658689,0.658689,0.752415,-90.590825,364.37027)" id="use2338" x="0" y="0" width="1000" height="700" xlink:href="#path2280"/>
  <use transform="matrix(-0.04710624,-0.99889,0.99889,-0.04710624,157.74323,755.86316)" id="use2340" x="0" y="0" width="1000" height="700" xlink:href="#path2280"/>
  <use transform="matrix(-0.395545,-0.918446,0.918446,-0.395545,335.19706,825.98594)" id="use2342" x="0" y="0" width="1000" height="700" xlink:href="#path2280"/>
  <use transform="matrix(-0.224951,-0.974371,0.974371,-0.224951,243.31016,798.92132)" id="use2344" x="0" y="0" width="1000" height="700" xlink:href="#path2280"/>
  <use transform="matrix(-0.693402,-0.720551,0.720551,-0.693402,525.97653,829.18927)" id="use2346" x="0" y="0" width="1000" height="700" xlink:href="#path2280"/>
  <use transform="matrix(-0.902585,-0.430511,0.430511,-0.902585,705.68452,765.06375)" id="use2348" x="0" y="0" width="1000" height="700" xlink:href="#path2280"/>
  <use transform="matrix(-0.811064,-0.584958,0.584958,-0.811064,618.72025,805.22477)" id="use2350" x="0" y="0" width="1000" height="700" xlink:href="#path2280"/>
  <use transform="matrix(-0.553391,-0.832921,0.832921,-0.553391,430.44236,836.18477)" id="use2352" x="0" y="0" width="1000" height="700" xlink:href="#path2280"/>
  <use transform="matrix(0.132256,-0.991216,0.991216,0.132256,81.254115,698.19949)" id="use2354" x="0" y="0" width="1000" height="700" xlink:href="#path2280"/>
  <use transform="matrix(-0.996345,-0.08541715,0.08541715,-0.996345,851.34033,641.81006)" id="use2364" x="0" y="0" width="1000" height="700" xlink:href="#path2280"/>
  <use transform="matrix(-0.995563,0.09410814,-0.09410814,-0.995563,905.33663,562.68956)" id="use2368" x="0" y="0" width="1000" height="700" xlink:href="#path2280"/>
  <use transform="matrix(-0.805928,0.592013,-0.592013,-0.805928,972.7237,286.50936)" id="use2370" x="0" y="0" width="1000" height="700" xlink:href="#path2280"/>
  <use transform="matrix(-0.546102,0.837718,-0.837718,-0.546102,932.92871,99.899072)" id="use2372" x="0" y="0" width="1000" height="700" xlink:href="#path2280"/>
  <use transform="matrix(-0.687088,0.726575,-0.726575,-0.687088,961.23531,191.41089)" id="use2374" x="0" y="0" width="1000" height="700" xlink:href="#path2280"/>
  <use transform="matrix(-0.898794,0.438371,-0.438371,-0.898794,967.0223,382.12951)" id="use2376" x="0" y="0" width="1000" height="700" xlink:href="#path2280"/>
  <use transform="matrix(-0.965017,-0.262189,0.262189,-0.965017,784.06703,710.00089)" id="use2378" x="0" y="0" width="1000" height="700" xlink:href="#path2280"/>
  <use transform="matrix(-0.387515,0.921863,-0.921863,-0.387515,888.71602,14.923051)" id="use2380" x="0" y="0" width="1000" height="700" xlink:href="#path2280"/>
  <use transform="matrix(-0.21644,0.976297,-0.976297,-0.21644,830.02148,-60.778011)" id="use2384" x="0" y="0" width="1000" height="700" xlink:href="#path2280"/>
  <path d="M 542.9901,392.18161 A 70.458923,70.458923 0 0 1 472.19178,429.03688" transform="matrix(2.6790409,0,0,2.6790409,-848.62407,-659.35957)" id="path2388" style="fill:none;stroke:#00aec7;stroke-width:6.37498617;stroke-miterlimit:4;stroke-opacity:1;stroke-dasharray:none"/>
  <path d="M 642.86457,360.59077 C 642.86457,360.59077 611.38606,346.4601 547.64436,346.25085 C 483.88305,346.04815 416.12643,363.61177 378.70402,363.16712 C 341.2816,362.70286 330.22423,362.69632 307.87409,358.49831 C 307.87409,358.49831 341.70663,369.68646 377.61201,373.0344 C 413.51739,376.38234 496.64054,359.9565 538.12365,357.36053 C 580.59414,354.69918 613.60276,354.72533 642.86457,360.59077" id="path292" style="fill:#ffffff;fill-opacity:1;fill-rule:nonzero;stroke:none"/>
  <path d="M 393.72595,378.94299 C 393.72595,378.94299 417.80237,380.16578 463.84966,375.22233 C 509.89042,370.29196 542.5721,363.45876 578.9352,362.5433 C 615.29177,361.62131 655.42132,367.97717 663.83041,370.16772 C 663.83041,370.16772 603.30588,368.51337 577.87589,372.15556 C 552.44591,375.79776 486.73599,384.02376 452.02724,384.82805 C 417.31848,385.65196 405.43067,380.93084 393.72595,378.94299" id="path296" style="fill:#00aec7;fill-opacity:1;fill-rule:nonzero;stroke:none"/>
  <path d="M 293.09541,344.23947 C 293.09541,344.23947 356.85019,361.28652 414.68067,350.09183 C 480.03095,337.41281 518.4146,337.67437 547.66332,337.53051 C 576.92513,337.36703 607.47511,344.71682 607.47511,344.71682 C 607.47511,344.71682 487.49843,219.54167 361.84595,153.17785 C 361.84595,153.17785 352.44947,258.80153 293.09541,344.23947" id="path300" style="fill:#00aec7;fill-opacity:1;fill-rule:nonzero;stroke:none"/>
  <path d="M 392.78369,246.87645 C 392.78369,246.87645 391.04432,240.23287 382.34098,241.18756 C 382.34098,241.18756 387.93178,238.76815 390.35773,240.09556 C 392.79022,241.4295 393.41796,241.73029 392.78369,246.87645 M 371.84596,235.09326 C 371.84596,235.09326 373.78149,234.43936 374.58578,234.79901 C 374.58578,234.79901 375.98512,238.85969 378.6007,240.32442 C 378.6007,240.32442 373.87958,240.03671 371.84596,235.09326 M 399.59727,241.44912 C 396.21663,236.98302 390.99201,235.4529 388.76877,235.40713 C 386.55206,235.36789 381.36668,239.69668 381.36668,239.69668 C 379.9935,237.29035 380.66701,235.43982 380.66701,235.43982 C 383.17143,235.76023 385.21158,236.66915 385.21158,236.66915 C 384.26997,233.4389 382.72678,232.03957 382.72678,232.03957 C 387.76177,230.70562 393.71876,235.07364 393.71876,235.07364 C 388.27835,227.89387 381.34706,226.66455 379.94772,226.56647 C 378.54185,226.46184 376.67171,228.59354 376.67171,228.59354 C 366.93521,228.64585 364.28694,234.04049 364.28694,234.04049 C 368.36724,240.37673 376.72402,241.87415 376.72402,241.87415 C 362.03754,240.27865 362.37102,251.77412 362.37102,251.77412 L 375.97858,244.70552 C 370.74742,274.88932 349.63968,288.41841 347.97879,290.16431 C 346.30482,291.92982 347.3249,293.79342 349.86855,294.08114 C 351.26134,294.225 353.00724,295.35623 357.6499,289.91583 C 375.24622,269.28544 377.56755,250.44672 378.11682,245.62097 L 378.3653,245.88907 C 379.86272,249.43972 378.82302,252.66996 379.12382,255.0109 C 379.43115,257.35185 384.61,262.43261 384.61,262.43261 C 384.61,262.43261 387.47406,256.92028 387.00979,253.61811 C 386.55206,250.3094 380.20274,244.10393 380.20274,244.10393 C 389.98501,242.30572 390.54083,258.64002 390.54083,258.64002 C 394.32688,254.21315 393.54874,249.47241 393.54874,249.47241 C 393.54874,249.47241 401.37587,243.7966 399.59727,241.44912" id="path304" style="fill:#ffffff;fill-opacity:1;fill-rule:nonzero;stroke:none"/>
</svg>